<?xml version="1.0" encoding="UTF-8" standalone="no"?>
<!-- Created with Inkscape (http://www.inkscape.org/), XmlHighlighting, XmlHighlighting -->

<!--suppress XmlUnusedNamespaceDeclaration, XmlHighlighting, XmlHighlighting -->
<svg
   xmlns:dc="http://purl.org/dc/elements/1.1/"
   xmlns:cc="http://creativecommons.org/ns#"
   xmlns:rdf="http://www.w3.org/1999/02/22-rdf-syntax-ns#"
   xmlns:svg="http://www.w3.org/2000/svg"
   xmlns="http://www.w3.org/2000/svg"
   xmlns:sodipodi="http://sodipodi.sourceforge.net/DTD/sodipodi-0.dtd"
   xmlns:inkscape="http://www.inkscape.org/namespaces/inkscape"
   width="1000"
   height="1000"
   viewBox="0 0 264.58333 264.58333"
   version="1.1"
   id="svg8"
   inkscape:version="0.92.2 2405546, 2018-03-11"
   sodipodi:docname="Pocket Trivia Logo Icon.svg">
  <defs
     id="defs2" />
  <sodipodi:namedview
     id="base"
     pagecolor="#ffffff"
     bordercolor="#666666"
     borderopacity="1.0"
     inkscape:pageopacity="0.0"
     inkscape:pageshadow="2"
     inkscape:zoom="0.49601871"
     inkscape:cx="481.16076"
     inkscape:cy="377.84933"
     inkscape:document-units="mm"
     inkscape:current-layer="layer3"
     showgrid="false"
     units="px"
     inkscape:pagecheckerboard="true"
     inkscape:window-width="1880"
     inkscape:window-height="1049"
     inkscape:window-x="40"
     inkscape:window-y="0"
     inkscape:window-maximized="1" />
  <metadata
     id="metadata5">
    <rdf:RDF>
      <cc:Work
         rdf:about="">
        <dc:format>image/svg+xml</dc:format>
        <dc:type
           rdf:resource="http://purl.org/dc/dcmitype/StillImage" />
        <dc:title />
      </cc:Work>
    </rdf:RDF>
  </metadata>
  <g
     inkscape:label="Layer 1"
     inkscape:groupmode="layer"
     id="layer1"
     transform="translate(0,-32.416684)"
     sodipodi:insensitive="true"
     style="display:none" />
  <g
     inkscape:groupmode="layer"
     id="layer2"
     inkscape:label="Pocket"
     style="display:inline" />
  <g
     inkscape:groupmode="layer"
     id="layer3"
     inkscape:label="The P"
     style="display:inline">
    <path
       style="fill:#e85a50;fill-opacity:1;stroke:none;stroke-width:0;stroke-linecap:round;stroke-linejoin:bevel;stroke-miterlimit:4;stroke-dasharray:none;stroke-dashoffset:0;stroke-opacity:1"
       d="m 52.2919,35.235964 c -11.079998,0 -20.000327,7.428549 -20.000327,16.656134 v 91.609592 c 0,0.46109 0.02813,0.91633 0.07183,1.36772 a 100,83.281454 0 0 0 -0.07183,1.19685 100,83.281454 0 0 0 100.000097,83.28111 100,83.281454 0 0 0 100.00009,-83.28111 100,83.281454 0 0 0 -0.0579,-1.35479 c 0.0342,-0.39988 0.0579,-0.8024 0.0579,-1.20978 V 51.892098 c 0,-9.227585 -8.92033,-16.656134 -20.00033,-16.656134 z"
       id="rect863"
       inkscape:connector-curvature="0" />
    <path
       sodipodi:nodetypes="cccccccccc"
       inkscape:connector-curvature="0"
       id="path868"
       d="m 151.94464,65.039424 -76.743092,-8.13e-4 v 0 l 14.738541,9.536905 h 17.629561 v 54.634314 h 10.74416 V 74.575577 h 18.89469 z"
       style="fill:#eae8dc;fill-opacity:1;stroke:#131312;stroke-width:1.22788823;stroke-linecap:round;stroke-linejoin:miter;stroke-miterlimit:4;stroke-dasharray:none;stroke-dashoffset:0;stroke-opacity:1"
       inkscape:export-xdpi="300"
       inkscape:export-ydpi="300" />
    <path
       sodipodi:nodetypes="ccccscccccccccccsccc"
       inkscape:connector-curvature="0"
       id="path870"
       d="m 137.20849,74.555778 h 11.50956 v 0.01535 c 0.14674,-0.0062 0.29345,-0.01075 0.44017,-0.01381 17.57798,-1.6e-5 31.8272,12.909561 31.8272,28.834402 0,15.92489 -14.24922,28.83456 -31.8272,28.83455 -0.14673,-0.006 -0.29352,-0.0123 -0.44017,-0.0198 v 0.0198 l -40.39171,-8e-4 -14.738533,9.53696 v 32.23258 h 17.497123 v -32.23258 h 40.85971 v -0.0261 c 0.17682,0.0108 0.35366,0.0192 0.5306,0.027 21.19204,2e-5 38.37155,-17.17952 38.37155,-38.3715 0,-21.191903 -17.17951,-38.371345 -38.37155,-38.37133 -0.1769,0.0046 -0.35378,0.01075 -0.5306,0.01903 -4.87128,3.113955 -9.83847,6.347203 -14.73615,9.516354 z"
       style="fill:#000000;fill-opacity:1;stroke:#1d1d1c;stroke-width:1.22788823;stroke-linecap:butt;stroke-linejoin:miter;stroke-miterlimit:4;stroke-dasharray:none;stroke-dashoffset:0;stroke-opacity:1"
       inkscape:export-xdpi="300"
       inkscape:export-ydpi="300" />
    <path
       style="fill:#eae8dc;fill-opacity:1;stroke:#000000;stroke-width:1.22788823;stroke-linecap:butt;stroke-linejoin:miter;stroke-miterlimit:4;stroke-dasharray:none;stroke-dashoffset:0;stroke-opacity:1"
       d="m 93.512947,181.91194 h 17.650893 v 17.65089 H 93.512947 Z"
       id="rect872"
       inkscape:connector-curvature="0" />
  </g>
</svg>
